<svg width="18" height="18" viewBox="0 0 18 18" fill="none" xmlns="http://www.w3.org/2000/svg">
<path d="M2.05485 8.25979C1.70968 8.26076 1.37183 8.35944 1.0804 8.5444C0.788965 8.72937 0.555855 8.99306 0.408038 9.30499C0.260221 9.61691 0.203737 9.96431 0.24512 10.307C0.286504 10.6497 0.424065 10.9736 0.641887 11.2414L5.28535 16.9296C5.45091 17.1352 5.66314 17.2983 5.90439 17.4054C6.14565 17.5125 6.40898 17.5605 6.6725 17.5454C7.23612 17.5151 7.74496 17.2136 8.06939 16.7179L17.715 1.18356C17.7166 1.18097 17.7183 1.1784 17.72 1.17587C17.8105 1.03691 17.7811 0.761525 17.5943 0.588525C17.543 0.541017 17.4825 0.504518 17.4165 0.481275C17.3506 0.458032 17.2806 0.448537 17.2108 0.453377C17.141 0.458216 17.073 0.477286 17.0109 0.509412C16.9488 0.541538 16.8939 0.586041 16.8496 0.640179C16.8462 0.644435 16.8426 0.648627 16.8389 0.652756L7.11116 11.6437C7.07414 11.6855 7.02918 11.7196 6.9789 11.7439C6.92861 11.7682 6.874 11.7822 6.81823 11.7852C6.76246 11.7883 6.70664 11.7802 6.65403 11.7614C6.60141 11.7427 6.55304 11.7137 6.51173 11.6761L3.28327 8.73818C2.94797 8.43081 2.50972 8.26014 2.05485 8.25979Z" fill="white"/>
</svg>
