<svg width="19" height="19" viewBox="0 0 19 19" fill="none" xmlns="http://www.w3.org/2000/svg">
<path d="M9.5 12.9279C7.60792 12.9279 6.07208 11.3921 6.07208 9.5C6.07208 7.60792 7.60792 6.07208 9.5 6.07208C11.3921 6.07208 12.9279 7.60792 12.9279 9.5C12.9279 11.3921 11.3921 12.9279 9.5 12.9279ZM9.5 7.25958C8.265 7.25958 7.25958 8.265 7.25958 9.5C7.25958 10.735 8.265 11.7404 9.5 11.7404C10.735 11.7404 11.7404 10.735 11.7404 9.5C11.7404 8.265 10.735 7.25958 9.5 7.25958Z" fill="#A7A7A7"/>
<path d="M9.5 16.6408C6.52333 16.6408 3.71291 14.8992 1.78125 11.875C0.942079 10.5688 0.942079 8.43917 1.78125 7.125C3.72083 4.10083 6.53125 2.35917 9.5 2.35917C12.4687 2.35917 15.2792 4.10083 17.2108 7.125C18.05 8.43125 18.05 10.5608 17.2108 11.875C15.2792 14.8992 12.4687 16.6408 9.5 16.6408ZM9.5 3.54667C6.94291 3.54667 4.49666 5.0825 2.78666 7.76625C2.19291 8.6925 2.19291 10.3075 2.78666 11.2337C4.49666 13.9175 6.94291 15.4533 9.5 15.4533C12.0571 15.4533 14.5033 13.9175 16.2133 11.2337C16.8071 10.3075 16.8071 8.6925 16.2133 7.76625C14.5033 5.0825 12.0571 3.54667 9.5 3.54667Z" fill="#A7A7A7"/>
</svg>
