<svg width="19" height="19" viewBox="0 0 19 19" fill="none" xmlns="http://www.w3.org/2000/svg">
<path d="M7.49708 12.0967C7.34667 12.0967 7.19625 12.0413 7.0775 11.9225C6.42833 11.2733 6.07208 10.4104 6.07208 9.5C6.07208 7.60792 7.60792 6.07208 9.5 6.07208C10.4104 6.07208 11.2733 6.42833 11.9225 7.0775C12.0333 7.18833 12.0967 7.33875 12.0967 7.49708C12.0967 7.65542 12.0333 7.80583 11.9225 7.91667L7.91667 11.9225C7.79792 12.0413 7.6475 12.0967 7.49708 12.0967ZM9.5 7.25958C8.265 7.25958 7.25958 8.265 7.25958 9.5C7.25958 9.89583 7.3625 10.2758 7.5525 10.6083L10.6083 7.5525C10.2758 7.3625 9.89583 7.25958 9.5 7.25958Z" fill="#A7A7A7"/>
<path d="M4.43333 14.6538C4.29875 14.6538 4.15625 14.6063 4.04541 14.5113C3.19833 13.7908 2.43833 12.9042 1.78916 11.875C0.949998 10.5688 0.949998 8.43917 1.78916 7.125C3.72083 4.10083 6.53125 2.35917 9.5 2.35917C11.2417 2.35917 12.9596 2.96083 14.4637 4.09292C14.725 4.29083 14.7804 4.66292 14.5825 4.92417C14.3846 5.18542 14.0125 5.24083 13.7512 5.04292C12.4529 4.06125 10.9804 3.54667 9.5 3.54667C6.94291 3.54667 4.49666 5.0825 2.78666 7.76625C2.19291 8.6925 2.19291 10.3075 2.78666 11.2337C3.38041 12.16 4.06125 12.9596 4.81333 13.6088C5.05875 13.8225 5.09041 14.1946 4.87666 14.4479C4.76583 14.5825 4.59958 14.6538 4.43333 14.6538Z" fill="#A7A7A7"/>
<path d="M9.5 16.6408C8.44708 16.6408 7.41792 16.4271 6.42833 16.0075C6.1275 15.8808 5.985 15.5325 6.11167 15.2317C6.23833 14.9308 6.58667 14.7883 6.8875 14.915C7.72667 15.2712 8.60541 15.4533 9.49208 15.4533C12.0492 15.4533 14.4954 13.9175 16.2054 11.2337C16.7992 10.3075 16.7992 8.6925 16.2054 7.76625C15.96 7.37833 15.6908 7.00625 15.4058 6.65792C15.2 6.40458 15.2396 6.0325 15.4929 5.81875C15.7462 5.61292 16.1183 5.64458 16.3321 5.90583C16.6408 6.28583 16.9417 6.6975 17.2108 7.125C18.05 8.43125 18.05 10.5608 17.2108 11.875C15.2792 14.8992 12.4687 16.6408 9.5 16.6408Z" fill="#A7A7A7"/>
<path d="M10.0462 12.8804C9.76916 12.8804 9.51583 12.6825 9.46041 12.3975C9.39708 12.0729 9.61083 11.7642 9.93541 11.7087C10.8062 11.5504 11.5346 10.8221 11.6929 9.95125C11.7562 9.62667 12.065 9.42083 12.3896 9.47625C12.7142 9.53958 12.9279 9.84833 12.8646 10.1729C12.6112 11.5425 11.5187 12.6271 10.1571 12.8804C10.1175 12.8725 10.0858 12.8804 10.0462 12.8804Z" fill="#A7A7A7"/>
<path d="M1.58333 18.0104C1.43292 18.0104 1.2825 17.955 1.16375 17.8363C0.934166 17.6067 0.934166 17.2267 1.16375 16.9971L7.0775 11.0833C7.30708 10.8538 7.68708 10.8538 7.91667 11.0833C8.14625 11.3129 8.14625 11.6929 7.91667 11.9225L2.00292 17.8363C1.88417 17.955 1.73375 18.0104 1.58333 18.0104Z" fill="#A7A7A7"/>
<path d="M11.5029 8.09083C11.3525 8.09083 11.2021 8.03542 11.0833 7.91667C10.8538 7.68708 10.8538 7.30708 11.0833 7.0775L16.9971 1.16375C17.2267 0.934167 17.6067 0.934167 17.8363 1.16375C18.0658 1.39333 18.0658 1.77333 17.8363 2.00292L11.9225 7.91667C11.8038 8.03542 11.6533 8.09083 11.5029 8.09083Z" fill="#A7A7A7"/>
</svg>
