<svg width="19" height="19" viewBox="0 0 19 19" fill="none" xmlns="http://www.w3.org/2000/svg">
<path d="M8.625 14.75H10.375V13H8.625V14.75ZM9.5 0.75C4.67 0.75 0.75 4.67 0.75 9.5C0.75 14.33 4.67 18.25 9.5 18.25C14.33 18.25 18.25 14.33 18.25 9.5C18.25 4.67 14.33 0.75 9.5 0.75ZM9.5 16.5C5.64125 16.5 2.5 13.3587 2.5 9.5C2.5 5.64125 5.64125 2.5 9.5 2.5C13.3587 2.5 16.5 5.64125 16.5 9.5C16.5 13.3587 13.3587 16.5 9.5 16.5ZM9.5 4.25C7.56625 4.25 6 5.81625 6 7.75H7.75C7.75 6.7875 8.5375 6 9.5 6C10.4625 6 11.25 6.7875 11.25 7.75C11.25 9.5 8.625 9.28125 8.625 12.125H10.375C10.375 10.1562 13 9.9375 13 7.75C13 5.81625 11.4338 4.25 9.5 4.25Z" fill="white" fill-opacity="0.6"/>
</svg>
