<svg width="24" height="25" viewBox="0 0 24 25" fill="none" xmlns="http://www.w3.org/2000/svg">
<path d="M5.29315 10.1714C6.23051 7.22774 8.89976 5.11364 12.0614 5.11364C13.761 5.11364 15.2961 5.73864 16.5022 6.76136L20.011 3.125C17.8728 1.19318 15.1316 0 12.0614 0C7.30727 0 3.21412 2.81073 1.24634 6.92711L5.29315 10.1714Z" fill="#EA4335"/>
<path d="M16.1228 18.7631C15.0274 19.4961 13.6355 19.8863 12.0614 19.8863C8.91187 19.8863 6.25095 17.7884 5.30399 14.8623L1.2438 18.0572C3.20914 22.1808 7.30219 25 12.0614 25C15.0093 25 17.8261 23.9139 19.9357 21.8745L16.1228 18.7631Z" fill="#34A853"/>
<path d="M19.9357 21.8746C22.1419 19.7418 23.5746 16.5663 23.5746 12.5C23.5746 11.7614 23.4649 10.9659 23.3004 10.2273H12.0614V15.0568H18.5307C18.2115 16.6809 17.3546 17.9388 16.1228 18.7631L19.9357 21.8746Z" fill="#4A90E2"/>
<path d="M5.30398 14.8624C5.06411 14.1212 4.93421 13.3268 4.93421 12.5C4.93421 11.6857 5.0602 10.9029 5.29315 10.1714L1.24634 6.92709C0.438821 8.6046 0 10.4952 0 12.5C0 14.4995 0.447057 16.3856 1.24379 18.0573L5.30398 14.8624Z" fill="#FBBC05"/>
</svg>
