<svg width="24" height="25" viewBox="0 0 24 25" fill="none" xmlns="http://www.w3.org/2000/svg">
<path d="M22.4215 9.63953L12.8207 0.581162C12.816 0.577068 12.8116 0.572657 12.8075 0.567961C12.454 0.246494 11.9934 0.0683594 11.5156 0.0683594C11.0378 0.0683594 10.5772 0.246494 10.2237 0.567961L10.2105 0.581162L0.620453 9.63953C0.424833 9.81941 0.268684 10.0379 0.161884 10.2813C0.0550837 10.5246 -4.03749e-05 10.7875 2.21873e-08 11.0533V22.1482C2.21873e-08 22.6575 0.202302 23.1459 0.562403 23.506C0.922503 23.8661 1.4109 24.0684 1.92016 24.0684H7.68065C8.18991 24.0684 8.67831 23.8661 9.03841 23.506C9.39851 23.1459 9.60082 22.6575 9.60082 22.1482V16.3877H13.4411V22.1482C13.4411 22.6575 13.6434 23.1459 14.0035 23.506C14.3636 23.8661 14.852 24.0684 15.3613 24.0684H21.1218C21.6311 24.0684 22.1195 23.8661 22.4796 23.506C22.8397 23.1459 23.042 22.6575 23.042 22.1482V11.0533C23.042 10.7875 22.9869 10.5246 22.8801 10.2813C22.7733 10.0379 22.6171 9.81941 22.4215 9.63953ZM21.1218 22.1482H15.3613V16.3877C15.3613 15.8784 15.159 15.39 14.7989 15.0299C14.4388 14.6698 13.9504 14.4675 13.4411 14.4675H9.60082C9.09156 14.4675 8.60316 14.6698 8.24306 15.0299C7.88296 15.39 7.68065 15.8784 7.68065 16.3877V22.1482H1.92016V11.0533L1.93336 11.0413L11.521 1.98648L21.1098 11.0389L21.123 11.0509L21.1218 22.1482Z" fill="white"/>
</svg>
