<svg width="24" height="20" viewBox="0 0 24 20" fill="none" xmlns="http://www.w3.org/2000/svg">
<path d="M3.375 0.952881V4.39463H0V19.047H20.625V15.6051H24V0.952881H3.375ZM19.2188 17.6408H1.40625V15.3028L7.01241 11.9806L12.7959 15.773L16.3564 12.8598L19.2188 15.2326V17.6408ZM19.2188 13.406L16.3623 11.0382L12.7041 14.0313L7.05005 10.3237L1.40625 13.6681V5.80088H19.2188V13.406ZM22.5938 14.1988H20.625V4.39463H4.78125V2.35913H22.5938V14.1988Z" fill="white"/>
<path d="M12.5302 6.8457C11.282 6.8457 10.2665 7.8612 10.2665 9.10944C10.2665 10.3577 11.282 11.3732 12.5302 11.3732C13.7784 11.3732 14.7939 10.3577 14.7939 9.10944C14.7939 7.8612 13.7784 6.8457 12.5302 6.8457ZM12.5302 9.96692C12.0574 9.96692 11.6727 9.58227 11.6727 9.10944C11.6727 8.63661 12.0574 8.25195 12.5302 8.25195C13.003 8.25195 13.3877 8.63661 13.3877 9.10944C13.3877 9.58227 13.003 9.96692 12.5302 9.96692Z" fill="white"/>
</svg>
