<svg width="15" height="20" viewBox="0 0 15 20" fill="none" xmlns="http://www.w3.org/2000/svg">
<path d="M5.47 10.9787L7.5 9.43875L9.52125 10.9787L8.75125 8.485L10.7812 6.875H8.29625L7.5 4.41625L6.70375 6.875H4.21875L6.24 8.485L5.47 10.9787ZM14.5 7.75C14.5 3.8825 11.3675 0.75 7.5 0.75C3.6325 0.75 0.5 3.8825 0.5 7.75C0.5 9.52625 1.165 11.1362 2.25 12.37V19.125L7.5 17.375L12.75 19.125V12.37C13.835 11.1362 14.5 9.52625 14.5 7.75ZM7.5 2.5C10.3962 2.5 12.75 4.85375 12.75 7.75C12.75 10.6462 10.3962 13 7.5 13C4.60375 13 2.25 10.6462 2.25 7.75C2.25 4.85375 4.60375 2.5 7.5 2.5ZM7.5 15.625L4 16.5175V13.805C5.0325 14.4 6.2225 14.75 7.5 14.75C8.7775 14.75 9.9675 14.4 11 13.805V16.5175L7.5 15.625Z" fill="white" fill-opacity="0.6"/>
</svg>
