<svg width="24" height="24" viewBox="0 0 24 24" fill="none" xmlns="http://www.w3.org/2000/svg">
<g clip-path="url(#clip0_62_355)">
<path d="M7.84247 10.8041C8.00155 10.8044 8.15416 10.7411 8.26663 10.6286C8.37909 10.5162 8.44236 10.3635 8.44213 10.2045C8.44213 9.87326 8.71081 9.60459 9.04202 9.60459C9.37329 9.60459 9.64191 9.87321 9.64191 10.2045C9.64191 10.5357 9.91037 10.8041 10.2416 10.8041C10.5731 10.8041 10.8415 10.5357 10.8415 10.2045C10.8415 9.21051 10.0358 8.40503 9.04202 8.40503C8.04833 8.40503 7.24257 9.21051 7.24257 10.2045C7.24255 10.2833 7.25804 10.3613 7.28818 10.434C7.31832 10.5068 7.36251 10.573 7.41823 10.6286C7.47394 10.6843 7.54009 10.7285 7.61288 10.7586C7.68567 10.7887 7.76369 10.8042 7.84247 10.8041ZM15.9716 14.7664C13.7315 15.8862 10.3512 15.8862 8.1107 14.7664C7.81435 14.6181 7.45412 14.7382 7.30584 15.0346C7.15783 15.3309 7.27772 15.6913 7.57407 15.8394C8.97003 16.4979 10.4977 16.8296 12.041 16.8094C13.5844 16.8295 15.112 16.4978 16.508 15.8394C16.8044 15.6913 16.9245 15.3309 16.7764 15.0345C16.6282 14.7382 16.2679 14.6181 15.9716 14.7663V14.7664Z" fill="white"/>
<path d="M22.238 9.60454H21.6382V7.8051C21.6366 6.14961 20.2948 4.80767 18.6392 4.80615H16.8397V3.49587C17.6659 3.20397 18.1616 2.35891 18.0134 1.49523C17.8651 0.631324 17.1162 0 16.2398 0C15.3633 0 14.6145 0.631324 14.4662 1.49523C14.318 2.35896 14.8138 3.20397 15.6399 3.49587V4.8061H8.44209V3.49587C9.26848 3.20397 9.764 2.35891 9.61594 1.49523C9.46782 0.631324 8.71892 0 7.84247 0C6.96603 0 6.21701 0.631324 6.06895 1.49523C5.92072 2.35896 6.41624 3.20397 7.24258 3.49587V4.8061H5.44314C3.78759 4.8079 2.44594 6.14955 2.44414 7.80515V9.6046H1.84425C0.850952 9.60573 0.0459245 10.4108 0.0447998 11.404V13.8034C0.0459245 14.7967 0.850952 15.6017 1.84425 15.6028H2.44414V18.0019C2.44594 19.6577 3.78759 20.9994 5.44314 21.0012H8.44214V23.4003C8.44223 23.5073 8.47095 23.6124 8.52533 23.7047C8.57971 23.7969 8.65777 23.8729 8.75142 23.9248C8.84504 23.9767 8.95083 24.0026 9.05782 23.9998C9.16482 23.9969 9.2691 23.9655 9.35986 23.9088L14.0127 21.0012H18.6392C20.2948 20.9996 21.6366 19.6578 21.6382 18.0019V15.6028H22.238C23.2313 15.6017 24.0364 14.7967 24.0375 13.8034V11.404C24.0364 10.4107 23.2313 9.60567 22.238 9.60454ZM16.2398 1.20732C16.5711 1.20732 16.8397 1.47571 16.8397 1.80698C16.8397 2.13842 16.5711 2.40687 16.2398 2.40687C15.9086 2.40687 15.6399 2.13842 15.6399 1.80698C15.6406 1.47616 15.9088 1.20793 16.2398 1.20732ZM7.84247 1.20732C8.17374 1.20732 8.44214 1.47571 8.44214 1.80698C8.44214 2.13842 8.17374 2.40687 7.84247 2.40687C7.51121 2.40687 7.24258 2.13842 7.24258 1.80698C7.24303 1.47594 7.51126 1.20777 7.84247 1.20732ZM1.84425 14.403C1.51326 14.4028 1.24481 14.1344 1.24436 13.8034V11.404C1.24481 11.0729 1.51326 10.8046 1.84425 10.8041H2.44414V14.403L1.84425 14.403ZM20.4386 18.0019C20.4375 18.9955 19.6324 19.8005 18.6392 19.8014H13.8405C13.7282 19.8014 13.6182 19.833 13.5231 19.8928L9.64192 22.3178V20.4012C9.64188 20.2421 9.57866 20.0896 9.46617 19.9771C9.35368 19.8646 9.20112 19.8014 9.04203 19.8013H5.44314C4.44984 19.8004 3.64482 18.9954 3.64369 18.0019V7.8051C3.64482 6.8118 4.44984 6.00678 5.44314 6.00565H18.6392C19.6324 6.00678 20.4375 6.8118 20.4386 7.8051V18.0019ZM22.8377 13.8034C22.8373 14.1344 22.5691 14.4026 22.238 14.403H21.6382V10.8042H22.238C22.5691 10.8048 22.8373 11.073 22.8377 11.404V13.8034Z" fill="white"/>
<path d="M15.0403 8.40503C14.047 8.40615 13.242 9.21118 13.2408 10.2045C13.2408 10.5357 13.5093 10.8041 13.8405 10.8041C14.172 10.8041 14.4404 10.5357 14.4404 10.2045C14.4404 9.87326 14.7091 9.60459 15.0403 9.60459C15.3715 9.60459 15.64 9.87321 15.64 10.2045C15.64 10.5357 15.9086 10.8041 16.2398 10.8041C16.5711 10.8041 16.8397 10.5357 16.8397 10.2045C16.8386 9.21118 16.0336 8.40615 15.0403 8.40503Z" fill="white"/>
</g>
<defs>
<clipPath id="clip0_62_355">
<rect width="24" height="24" fill="white"/>
</clipPath>
</defs>
</svg>
