<svg width="15" height="15" viewBox="0 0 15 15" fill="none" xmlns="http://www.w3.org/2000/svg">
<g clip-path="url(#clip0_79_280)">
<path fill-rule="evenodd" clip-rule="evenodd" d="M0.815621 2.21384C0.761965 1.99988 0.770839 1.77502 0.841188 1.56595C0.911538 1.35688 1.04041 1.17239 1.2125 1.03439C1.38459 0.896395 1.59266 0.81068 1.81202 0.787427C2.03138 0.764175 2.2528 0.804363 2.45 0.903218L13.5812 6.46884C13.7729 6.56448 13.9341 6.71163 14.0468 6.89379C14.1595 7.07594 14.2192 7.2859 14.2192 7.50009C14.2192 7.71429 14.1595 7.92424 14.0468 8.1064C13.9341 8.28856 13.7729 8.43571 13.5812 8.53134L2.45 14.097C2.2528 14.1958 2.03138 14.236 1.81202 14.2128C1.59266 14.1895 1.38459 14.1038 1.2125 13.9658C1.04041 13.8278 0.911538 13.6433 0.841188 13.4342C0.770839 13.2252 0.761965 13.0003 0.815621 12.7863L1.98125 8.12509L8.75 7.50009L1.98125 6.87509L0.815621 2.21384Z" fill="white"/>
</g>
<defs>
<clipPath id="clip0_79_280">
<rect width="15" height="15" fill="white"/>
</clipPath>
</defs>
</svg>
